<svg xmlns="http://www.w3.org/2000/svg" viewBox="0 0 157.2 244.91"><defs><style>.cls-1{fill:#fff;}.cls-2{fill:#7a94af;}.cls-3{fill:#fcfaeb;}.cls-4{fill:#e5dcbb;}.cls-5{fill:#050505;}.cls-6{fill:#f4f6e7;}.cls-7{fill:#1d1d1b;}.cls-8{fill:#6ab0ce;}</style></defs><title>Монтажная область 18 копия</title><g id="Слой_2" data-name="Слой 2"><path class="cls-1" d="M23.2,217.32c-.05-1.48-.12-3-.19-4.54l3.14.12c1,0,2.08.06,3.13.06s2.12,0,3.19-.06l3.5-.12a5.56,5.56,0,0,0,0,2.1c-.63-.07-1.38-.13-2.27-.19s-1.8-.1-2.72-.14l-2.66-.09-2.12,0c0,.82,0,1.6-.05,2.35s0,1.49,0,2.24,0,1.57,0,2.26,0,1.41,0,2.15c1.54,0,3.06,0,4.57-.07s3-.14,4.46-.28a4,4,0,0,0,0,2.1q-.87-.1-2-.15c-.73,0-1.5-.07-2.29-.09s-1.6,0-2.42,0H26.17v3c0,1.54,0,3.06.08,4.56s.13,3,.2,4.41c-.54,0-1.11-.07-1.72-.07s-1.18,0-1.72.07c.07-1.45.14-2.92.19-4.41s.09-3,.09-4.56v-6C23.29,220.31,23.26,218.8,23.2,217.32Z"/><path class="cls-1" d="M40.81,221.86c0-1.55,0-3.06-.09-4.54s-.12-3-.19-4.54l2,.12c.65,0,1.32.06,2,.06s1.35,0,2-.09,1.32-.09,2-.09a14.07,14.07,0,0,1,2.8.28,6.94,6.94,0,0,1,2.33.93,4.69,4.69,0,0,1,1.58,1.7,5.47,5.47,0,0,1,.57,2.63,5.38,5.38,0,0,1-.75,2.89,7.06,7.06,0,0,1-1.84,2,9.1,9.1,0,0,1-2.33,1.22,11.58,11.58,0,0,1-2.26.58l1.16,1.47c.49.63,1,1.33,1.65,2.09L53.32,231c.65.83,1.28,1.62,1.89,2.38s1.18,1.45,1.72,2.09,1,1.1,1.29,1.43a7.41,7.41,0,0,0-1-.07H55.1a6.67,6.67,0,0,0-1,.07l-1.6-2.21c-.71-1-1.5-2-2.36-3.15s-1.75-2.23-2.65-3.35-1.72-2-2.47-2.82H43.68v2.56q0,2.31.09,4.56c.06,1.49.12,3,.19,4.41-.54,0-1.11-.07-1.71-.07s-1.18,0-1.72.07c.07-1.45.13-2.92.19-4.41s.09-3,.09-4.56Zm2.87,2a6.93,6.93,0,0,0,1.07.14c.39,0,.81,0,1.28,0a10.64,10.64,0,0,0,2.26-.25,6.43,6.43,0,0,0,2.15-.86,4.92,4.92,0,0,0,1.63-1.64,4.77,4.77,0,0,0,.65-2.61,4.5,4.5,0,0,0-.51-2.26A3.9,3.9,0,0,0,50.9,215a5.07,5.07,0,0,0-1.75-.72,9.18,9.18,0,0,0-1.86-.19c-.82,0-1.49,0-2,0l-1.37.12c0,1.29-.09,2.56-.14,3.82s-.07,2.52-.07,3.79Z"/><path class="cls-1" d="M81.56,236.85a6.19,6.19,0,0,0-.93-.07H78.77a6.19,6.19,0,0,0-.93.07c-.16-.54-.38-1.18-.66-1.94s-.59-1.56-.93-2.39l-1-2.52c-.35-.85-.67-1.66-1-2.43-.74,0-1.5,0-2.27-.06H67.51l-2.14.06q-1.12,2.73-2,5.2c-.61,1.65-1.07,3-1.37,4.08a10.52,10.52,0,0,0-1.3-.07,10.35,10.35,0,0,0-1.29.07q2.84-6.14,5.53-12.19t5.43-12.33H71l1.82,4.39,2,4.79c.68,1.61,1.35,3.21,2,4.8s1.31,3.06,1.91,4.43,1.13,2.59,1.61,3.66S81.25,236.29,81.56,236.85ZM66,226l1.9,0c.65,0,1.28,0,1.89,0l2,0,2,0-3.89-8.9Z"/><path class="cls-1" d="M92.71,222q2.48,4.69,5.17,9.63c.24-.44.57-1.08,1-1.91s1-1.78,1.54-2.85,1.21-2.24,1.87-3.49l2-3.8c.69-1.29,1.37-2.55,2.05-3.78s1.3-2.4,1.89-3.47h.45q.39,3.36.72,6.5t.69,6.16q.34,3,.7,6c.23,2,.49,3.93.77,5.87a4.73,4.73,0,0,0-.83-.07h-1.64a4.73,4.73,0,0,0-.83.07c-.25-3.1-.51-6.12-.77-9s-.57-5.9-.94-8.93h-.07q-2.43,4.41-4.75,8.77t-4.43,9.13H97q-2.1-4.41-4.4-8.85T88,218.88H88c-.17,1.45-.35,3-.55,4.71s-.38,3.36-.54,5-.3,3.2-.42,4.66-.17,2.66-.17,3.59a10.84,10.84,0,0,0-2.46,0c.31-1.89.62-3.89,1-6s.64-4.22.94-6.34.59-4.22.85-6.29.47-4,.66-5.9h.6Q90.25,217.29,92.71,222Z"/><path class="cls-1" d="M116.64,217.27c0-1.5-.12-3-.19-4.49l3.14.12c1,0,2.08.06,3.13.06s2.09,0,3.12-.06l3.12-.12a5.07,5.07,0,0,0,0,2.1c-.75,0-1.43-.09-2.05-.14l-2-.14-2.26-.12c-.82,0-1.8,0-3,0,0,.75,0,1.46-.08,2.14s-.06,1.44-.06,2.31,0,1.8,0,2.66,0,1.52,0,2c1,0,2,0,2.77,0s1.56-.05,2.24-.09l1.87-.11c.58,0,1.12-.07,1.63-.12a5.6,5.6,0,0,0-.1,1.09,5.33,5.33,0,0,0,.1,1c-.6-.07-1.31-.13-2.12-.18s-1.61-.07-2.41-.08l-2.28,0-1.7,0c0,.21,0,.44,0,.69s0,.55,0,.93v3.46c0,1.34,0,2.43,0,3.3s0,1.52,0,2h2.46c.88,0,1.75,0,2.61-.05s1.66-.08,2.41-.14a15.33,15.33,0,0,0,2-.27,3,3,0,0,0-.08.55,5.25,5.25,0,0,0,0,.54,3.27,3.27,0,0,0,.1.91c-1,0-2.09-.07-3.13-.07h-6.36c-1,0-2.11,0-3.19.07.07-1.49.14-3,.19-4.47s.09-3,.09-4.53v-6C116.73,220.28,116.7,218.76,116.64,217.27Z"/><path class="cls-1" d="M23.2,183.6c-.05-1.48-.12-3-.19-4.53l3.14.12c1,0,2.08.05,3.13.05s2.12,0,3.19-.05l3.5-.12a5.56,5.56,0,0,0,0,2.1c-.63-.07-1.38-.14-2.27-.19s-1.8-.11-2.72-.14l-2.66-.09c-.85,0-1.56,0-2.12,0,0,.82,0,1.6-.05,2.35s0,1.49,0,2.24,0,1.57,0,2.26,0,1.41,0,2.16c1.54,0,3.06,0,4.57-.07s3-.14,4.46-.28a4,4,0,0,0,0,2.1c-.58-.07-1.24-.12-2-.16l-2.29-.09c-.79,0-1.6,0-2.42,0H26.17v3c0,1.54,0,3.06.08,4.55s.13,3,.2,4.42c-.54,0-1.11-.07-1.72-.07s-1.18,0-1.72.07c.07-1.45.14-2.92.19-4.42s.09-3,.09-4.55v-6C23.29,186.6,23.26,185.09,23.2,183.6Z"/><path class="cls-1" d="M62.08,203.14a6.19,6.19,0,0,0-.93-.07H59.29a6.19,6.19,0,0,0-.93.07q-.24-.81-.66-1.95c-.28-.76-.59-1.55-.93-2.38s-.68-1.67-1-2.52-.67-1.67-1-2.44l-2.27,0-2.32,0-2.13,0-2.14,0c-.75,1.82-1.43,3.56-2,5.2s-1.07,3-1.37,4.09a10.52,10.52,0,0,0-1.3-.07,10.35,10.35,0,0,0-1.29.07q2.84-6.13,5.53-12.2t5.43-12.33h.67l1.82,4.4c.66,1.57,1.32,3.17,2,4.78s1.35,3.21,2,4.8,1.32,3.07,1.91,4.43,1.13,2.59,1.61,3.66S61.77,202.58,62.08,203.14Zm-15.53-10.9,1.9,0c.65,0,1.28,0,1.89,0l2,0,2,0-3.89-8.9Z"/><path class="cls-1" d="M70,188.11c0-1.55,0-3.06-.09-4.56s-.12-3-.19-4.48l1.86.12c.63,0,1.25.05,1.85.05s1.23,0,1.86-.09,1.25-.08,1.86-.08a17.13,17.13,0,0,1,2.84.22,7.19,7.19,0,0,1,2.34.81,4.31,4.31,0,0,1,1.61,1.56,4.61,4.61,0,0,1,.6,2.45,5.17,5.17,0,0,1-1.63,4.06,9.11,9.11,0,0,1-4.26,2.07v.07a8.74,8.74,0,0,1,4.93,1.51,5.14,5.14,0,0,1,1.8,4.38,6.31,6.31,0,0,1-.8,3.29,6.51,6.51,0,0,1-2.11,2.16,8.5,8.5,0,0,1-2.85,1.15,14.36,14.36,0,0,1-3.1.34c-.56,0-1.13,0-1.7,0l-1.7,0h-1.7c-.57,0-1.14,0-1.7.07.07-1.5.13-3,.19-4.47s.09-3,.09-4.54Zm4.76,1.71a12.54,12.54,0,0,0,2.44-.24,6.6,6.6,0,0,0,2.15-.83,4.42,4.42,0,0,0,1.53-1.54,4.7,4.7,0,0,0,.58-2.43,4.37,4.37,0,0,0-.53-2.3,3.85,3.85,0,0,0-1.33-1.33,5.31,5.31,0,0,0-1.82-.63,14,14,0,0,0-2-.16c-.61,0-1.12,0-1.55.06s-.79.07-1.12.12c0,1.12-.09,2.23-.14,3.33s-.07,2.2-.07,3.32v2.63Zm-1.89,4.87c0,1.19,0,2.37.07,3.54s.1,2.35.14,3.54c.45,0,1,.09,1.58.12s1.23.05,1.86.05a6.05,6.05,0,0,0,2.15-.38,5.25,5.25,0,0,0,1.81-1.14,5.42,5.42,0,0,0,1.22-1.86,6.55,6.55,0,0,0,.46-2.5,4.88,4.88,0,0,0-.55-2.47A3.82,3.82,0,0,0,80,192.08a7.53,7.53,0,0,0-2.44-.75,21.79,21.79,0,0,0-3.17-.21H72.83Z"/><path class="cls-1" d="M95.13,183.6c-.06-1.48-.12-3-.19-4.53l.88.12a7.08,7.08,0,0,0,1.68,0l.87-.12c-.07,1.54-.13,3.05-.19,4.53s-.09,3-.09,4.54c0,2.94,0,5.5,0,7.66s0,4.09.07,5.79c1.66,0,3.24,0,4.76-.05a44.75,44.75,0,0,0,4.91-.4,4,4,0,0,0-.18,1.05,3.24,3.24,0,0,0,.18.95c-1.08,0-2.15-.07-3.23-.07H98.18c-1,0-2.12,0-3.24.07.07-1.45.13-2.92.19-4.42s.09-3,.09-4.55v-6C95.22,186.6,95.19,185.09,95.13,183.6Z"/><path class="cls-1" d="M116.5,183.55c0-1.49-.12-3-.19-4.48l3.14.12c1,0,2.08.05,3.13.05s2.09,0,3.12-.05l3.12-.12a5.07,5.07,0,0,0,0,2.1l-2-.14-2-.14c-.69,0-1.44-.09-2.26-.13s-1.8,0-3,0c0,.75,0,1.46-.08,2.14s-.06,1.45-.06,2.31,0,1.8,0,2.67,0,1.51,0,2c1,0,2,0,2.77,0s1.56-.05,2.24-.09l1.87-.1,1.63-.12a5.49,5.49,0,0,0-.1,1.08,5.33,5.33,0,0,0,.1,1c-.6-.07-1.31-.12-2.12-.17s-1.61-.08-2.41-.09l-2.28,0c-.71,0-1.28,0-1.7,0,0,.21,0,.44,0,.68s0,.56,0,.93v3.47c0,1.33,0,2.43,0,3.29s0,1.52.06,2H122c.89,0,1.75,0,2.61-.05s1.66-.08,2.41-.14a15.48,15.48,0,0,0,2-.26,2.8,2.8,0,0,0-.08.54,5.25,5.25,0,0,0,0,.54,3.35,3.35,0,0,0,.1.92c-1.05,0-2.09-.07-3.13-.07H119.5c-1,0-2.11,0-3.19.07.07-1.5.14-3,.19-4.47s.09-3,.09-4.54v-6C116.59,186.56,116.56,185.05,116.5,183.55Z"/><path class="cls-2" d="M108.84,22.82A54,54,0,0,0,75.16,11.09h0A54.22,54.22,0,0,0,21,65.31V171.45H129.38V66.26"/><path class="cls-3" d="M46.53,171.45h-6V20.81a3,3,0,0,1,3-3h0a3,3,0,0,1,3,3Z"/><path d="M46.53,170.45h-6l1,1V26c0-1.7-.11-3.44,0-5.14a2,2,0,1,1,4,0c0,.55,0,1.12,0,1.67V171.45a1,1,0,0,0,2,0V36.51c0-5.22.22-10.49,0-15.7a4,4,0,0,0-8,0c0,.39,0,.79,0,1.18V171.45a1,1,0,0,0,1,1h6A1,1,0,0,0,46.53,170.45Z"/><path class="cls-4" d="M129.38,171.45V108.52s-12.59-8-14.6-10.78a49.76,49.76,0,0,1-4.06-7.31s-3-7.06-3.46-7.79-5.57-5.48-5.57-5.48-2.92-2.09-2.38-2.6a16.87,16.87,0,0,1,8.84-3.46c5-.51,20-3.65,23.81-6.54s10.12-6.18,12.27-11.91,3.44-10.44,3.73-11.48,2.11-6.6,2.7-7.78,2.14-3.63,2.45-4.1,1.09-1.19.86-2-1.46-2-4.26-.27-9.42,6.09-24.75,9.09l-2.78.94s-.57-6.49-.9-8.17-1.63-10-1.6-11.22.52-3.74.43-4.68-1-2.58-2-1.71-5,7.05-6.26,8.44S98,32.57,98,32.57s-4.29,5.06-4.81,8.6-1.23,9.38-.63,12.73S92,63.65,92,63.65s-2,7.34-2.42,7.6-4.65,0-7.31,1.77a24.67,24.67,0,0,0-9.68,10.85C70.05,89.75,66.7,92,66.7,92a6.12,6.12,0,0,0,0,6.58c2.21,3.35,4.15,1.25,4.15,1.25a5.06,5.06,0,0,0-.52,3.7c.61,1.76,3.7,4.14,6.61,3.35s6.67-4.9,6.87-5.14S85,100.18,86,100.53s1.78,3.25.08,4.38-7.21,2.36-7.36,2.43-1.53,1.33-.77,2.1a6.22,6.22,0,0,0,5,1.72,11.9,11.9,0,0,0,7.81-4.33c-.39,4.83-.42,8.54-.42,8.54l0,4.94s.7,5.65,1.07,7.22.57,3.24.57,3.24-19.47.18-30.16-9.25-10-22.54-9.72-26.1,1.05-9.26,1.19-10.34S50.52,77.7,50.62,72.2c-1.59-5.76-6.85-3.63-7.71-2.12a10.91,10.91,0,0,0-.66,7.53c-.06,2.34-1.3.41-2.4,1.92s-3.09,4.21-.36,9.87C32.6,91.25,44.09,104,44.09,104s2.79,7,3.6,9.66c.66,3.61,1.79,7.52,3.64,8.93l1.4,2.64s1.79,5.44,4.83,7.45,2.74,5,5.94,7,2.1,5.15,6.47,6.8a8,8,0,0,0,5.19,5.71S78,155,80.48,154.5s8.31-3.47,9.85-3.77,5.24-.67,6.7,0,4.9,4.07,5.33,6.23,0,2.94,0,2.94-2.93,1.61-11.23-.77a46.75,46.75,0,0,0-17.88-1.45c-1.43.29-8.38,2.49-9.87,5.41s-4,6.57-4.09,7.48l-.14.92,37-.31Z"/><path class="cls-5" d="M39.67,23A55.82,55.82,0,0,0,20,65.72q0,9.32,0,18.63v69c0,5.92-.21,11.89,0,17.81v.25a1,1,0,0,0,1,1H125c1.39,0,2.82.09,4.21,0h.19a1,1,0,0,0,1-1V70.56c0-1.36.1-2.76,0-4.13v-.17a1,1,0,0,0-2,0V167.14a21.92,21.92,0,0,0,0,4.13,1.08,1.08,0,0,1,0,.18l1-1h-104a22.77,22.77,0,0,0-4.21,0,1.21,1.21,0,0,1-.19,0l1,1V66.89A60.37,60.37,0,0,1,23.13,54.1a53.41,53.41,0,0,1,13-25,54.42,54.42,0,0,1,4.93-4.67c1-.83-.44-2.24-1.42-1.42Z"/><path class="cls-5" d="M46.23,20.45a1,1,0,0,0,0-2,1,1,0,0,0,0,2Z"/><path class="cls-5" d="M109.54,22.11a55.1,55.1,0,0,0-63.81-3.52c-1.09.68-.09,2.41,1,1.72a53.16,53.16,0,0,1,61.39,3.21c1,.79,2.42-.61,1.41-1.41Z"/><path d="M90.15,106.13a57.78,57.78,0,0,0,.89,24,1,1,0,0,0,1.92-.53,55.39,55.39,0,0,1-.88-23c.21-1.26-1.71-1.8-1.93-.54Z"/><path d="M94,70.88c-4.14-.47-8.24-.67-12.1,1.2a21.52,21.52,0,0,0-7.46,6.77C71.75,82.5,70.74,87,67.51,90.3a8.28,8.28,0,0,0-2.43,3.29,6.26,6.26,0,0,0,1.21,5.35C69,102.51,74,99.83,75,96.17a1,1,0,0,0-1.93-.53,4.26,4.26,0,0,1-3.21,3c-1.61.35-2.62-1.51-2.9-2.86a3.37,3.37,0,0,1,1.14-3.25,30.29,30.29,0,0,0,2.78-3.1,29.7,29.7,0,0,0,2.53-5,27.5,27.5,0,0,1,3.1-5,19.69,19.69,0,0,1,5.85-5.32c3.64-2,7.68-1.66,11.64-1.21,1.27.14,1.26-1.86,0-2Z"/><path d="M70.39,98.74c-2.64,3.42-.1,8.16,3.76,9.1,4.49,1.09,8-1.89,10.37-5.36.19-.28.7-1.2,1.18-1.11s.49,1.16.41,1.5a3.68,3.68,0,0,1-2.38,2.34c-1.92.72-4.6.3-6.22,1.69s-.61,3.42.93,4.37a8,8,0,0,0,6,.64,14.58,14.58,0,0,0,10-9.47c.42-1.22-1.51-1.74-1.93-.53a12.63,12.63,0,0,1-7.72,7.83c-1.73.57-4.3.9-5.74-.53-.9-.89.53-1.14,1.21-1.26,1-.18,2.12-.28,3.15-.54a6.41,6.41,0,0,0,4.3-3.06,3.64,3.64,0,0,0-.56-4.42c-1.41-1.19-3-.25-4,1-1.23,1.65-2.21,3.27-4.07,4.3a5.8,5.8,0,0,1-6.3-.22,3.82,3.82,0,0,1-.68-5.27c.79-1-1-2-1.72-1Z"/><circle class="cls-1" cx="85.05" cy="85.08" r="5.7"/><path d="M89.75,85.08a4.7,4.7,0,1,1-3.87-4.62,4.75,4.75,0,0,1,3.87,4.62,1,1,0,0,0,2,0,6.8,6.8,0,0,0-4.39-6.28,6.69,6.69,0,1,0,4.39,6.28A1,1,0,0,0,89.75,85.08Z"/><circle cx="85.05" cy="85.08" r="1.85"/><path d="M135.49,54.64a50.28,50.28,0,0,1-12.27,7.78,25.92,25.92,0,0,1-8.75,2,15.42,15.42,0,0,1-4.55-.18,1.88,1.88,0,0,1-.7-.24c-.14-.12-.09-.15,0-.56a9.75,9.75,0,0,1,.54-2,42.82,42.82,0,0,1,3.69-8.67c2.41-4,6-7,9.76-9.61,1-.73,0-2.47-1-1.73a37.15,37.15,0,0,0-10,9.59,41.82,41.82,0,0,0-4.36,9.89c-.42,1.26-1.19,3.32-.12,4.46s2.85,1.08,4.13,1.14a27.17,27.17,0,0,0,9.77-1.31,49.63,49.63,0,0,0,15.33-9.13c1-.83-.43-2.23-1.41-1.42Z"/><path d="M89.65,114.74a6.26,6.26,0,0,0,1.68,1.48,3.26,3.26,0,0,0,2.8.31,5.91,5.91,0,0,0,3.55-4.11,13.94,13.94,0,0,0,.35-3.59,1,1,0,0,0-1-1,1,1,0,0,0-1,1c0,.58,0,1.16,0,1.74a6.36,6.36,0,0,1-.26,1.43,4.74,4.74,0,0,1-.65,1.34c-.06.1-.14.2-.21.31s.09-.09-.06.07a4.67,4.67,0,0,1-.44.45c-.18.17.07,0-.09.08l-.29.17-.23.12c-.11,0-.11,0,0,0l-.18.06-.39.12c-.18.06.12,0-.09,0H92.9l-.3-.1c-.07,0-.06,0,0,0l-.16-.09a3.37,3.37,0,0,1-.32-.19s-.23-.17-.1-.06l-.27-.23a6.31,6.31,0,0,1-.7-.76,1,1,0,0,0-1.42,0,1,1,0,0,0,0,1.42Z"/><path d="M95.49,114.12a4.59,4.59,0,0,0,3.81,1,5.43,5.43,0,0,0,3.16-1.62,9.21,9.21,0,0,0,1.63-8.41,1,1,0,0,0-1.93.53,7.37,7.37,0,0,1-1,6.32,2.88,2.88,0,0,1-1,.81l-.25.12-.13,0a4.88,4.88,0,0,1-.65.2l-.25,0h-.08l-.22,0h-.34s-.3,0-.18,0a2.23,2.23,0,0,1-1.17-.52,1,1,0,0,0-1.42,0,1,1,0,0,0,0,1.41Z"/><path d="M103.54,112.16a5,5,0,0,0,4-2.9,11.54,11.54,0,0,0,.69-5.74,1,1,0,0,0-1-1,1,1,0,0,0-1,1,10.89,10.89,0,0,1-.36,4.6,3.83,3.83,0,0,1-1,1.4,2.4,2.4,0,0,1-.63.43,1.31,1.31,0,0,1-.31.13l-.26.06-.11,0a1,1,0,0,0-1,1,1,1,0,0,0,1,1Z"/><path d="M107.56,108.89c2.37.27,4.15-2,4.89-4a7.93,7.93,0,0,0-.34-6.26,1,1,0,0,0-1.73,1,5.87,5.87,0,0,1,.23,4.47c-.43,1.28-1.53,2.93-3,2.76a1,1,0,0,0-1,1,1,1,0,0,0,1,1Z"/><path d="M112.58,105.77a7,7,0,0,0,3.15-3,7.28,7.28,0,0,0,.79-4.46,1,1,0,0,0-1.23-.7,1,1,0,0,0-.7,1.23c0-.2,0,0,0,.05s0,.15,0,.22v.45l0,.45c0-.23,0,.06,0,.09l0,.17a5.38,5.38,0,0,1-.25.87l-.09.25c0-.1,0-.07,0,0s-.14.29-.23.44-.15.26-.23.38a2.14,2.14,0,0,1-.13.19l-.08.11a1.31,1.31,0,0,1-.09.11l-.15.17c-.1.11-.2.22-.31.32l-.34.3c-.08.07.11-.07,0,0l-.19.13a5.07,5.07,0,0,1-.82.46,1,1,0,0,0-.36,1.36,1,1,0,0,0,1.37.36Z"/><path d="M108.2,152.18c.3,4.53-4.33,6.71-8.19,7-4.53.34-9-.76-13.43-1.64C78.85,156,70.35,155.24,64,160.88a21.58,21.58,0,0,0-6,10c-.38,1.23,1.55,1.76,1.92.53a19.69,19.69,0,0,1,5.61-9.24,17.06,17.06,0,0,1,11.52-3.82c4.44,0,8.75,1.12,13.09,1.94,4.16.78,8.66,1.49,12.83.42,3.9-1,7.48-4.22,7.19-8.53-.08-1.28-2.08-1.29-2,0Z"/><path d="M52.13,86.4c-.82,5.8-1.44,11.53-.66,17.37.69,5.11,2.08,10.35,5.4,14.42,3.09,3.8,7.53,6.62,11.89,8.75a47.67,47.67,0,0,0,14.16,4.4,45.33,45.33,0,0,0,16.66-.65c1.25-.29.72-2.21-.53-1.93a44.35,44.35,0,0,1-27.41-2.68A39,39,0,0,1,60,118.59c-3.63-3.53-5.28-8.16-6.18-13-1.15-6.23-.59-12.39.29-18.61.18-1.26-1.75-1.81-1.93-.54Z"/><path d="M40,88.4c-2.49.28-3.6,2.58-3.34,4.9A14.16,14.16,0,0,0,39.77,100a57,57,0,0,1,3.91,5.62,24,24,0,0,1,2,5.41,1,1,0,0,0,1.93-.54,35.83,35.83,0,0,0-1.6-4.75,26.41,26.41,0,0,0-2.63-4.23,61.08,61.08,0,0,1-3.68-5.25,8.44,8.44,0,0,1-1.09-3.16c-.11-1,.1-2.59,1.36-2.73s1.28-2.15,0-2Z"/><path class="cls-6" d="M50.5,42.26a26.71,26.71,0,0,1,14.11,4.09,44.65,44.65,0,0,0,0-21.23A26.79,26.79,0,0,1,50.5,29.2c-14,0-25.92-11.24-29.72-26.65-10,6.17-16.9,18.71-16.9,33.18s6.87,27,16.9,33.19C24.58,53.51,36.45,42.26,50.5,42.26Z"/><path class="cls-7" d="M50.5,43.26a26.63,26.63,0,0,1,13.61,4,1,1,0,0,0,1.47-.6,46.53,46.53,0,0,0,0-21.76,1,1,0,0,0-1.47-.59,25.86,25.86,0,0,1-22.32,2.39A30.83,30.83,0,0,1,26.55,13.77,40.25,40.25,0,0,1,21.74,2.29a1,1,0,0,0-1.47-.6C1.87,13.15-1.88,40.11,8.85,58A35.15,35.15,0,0,0,20.27,69.78a1,1,0,0,0,1.47-.6c3.38-13.44,14-25.82,28.76-25.92a1,1,0,0,0,0-2C38.87,41.34,29,48.83,23.58,58.83a43.15,43.15,0,0,0-3.77,9.82l1.47-.6C3.85,57.19.44,31.57,10.49,14.63A32.88,32.88,0,0,1,21.28,3.42l-1.47-.6C23.4,17.06,34.91,30.2,50.5,30.2A28.23,28.23,0,0,0,65.12,26l-1.47-.59a44.12,44.12,0,0,1,0,20.69l1.47-.6A28.71,28.71,0,0,0,50.5,41.26,1,1,0,0,0,50.5,43.26Z"/><path d="M54.06,86.94c.69-1.73-.07-3.58-.7-5.21a16.34,16.34,0,0,1-1.45-5.19c-.07-1.85.08-3.77-.63-5.52a5.39,5.39,0,0,0-8.49-2.21,6.19,6.19,0,0,0-2.08,4.44,10.16,10.16,0,0,0,.17,2.58,17.5,17.5,0,0,0,.52,2.47c.52,1.51,2.08,2.52,3.21,3.59.84.79,1.64,1.58,2.52,2.31s2.41-.59,1.42-1.41c-.51-.43-1-.86-1.49-1.32s-1.14-1.09-1.71-1.63a20.58,20.58,0,0,1-1.74-1.62,4,4,0,0,1-.59-1.9,8.62,8.62,0,0,1-.08-4.25,3.42,3.42,0,0,1,6.56-.13,15.1,15.1,0,0,1,.41,4.6,16.49,16.49,0,0,0,1.23,5c.54,1.49,1.63,3.3,1,4.9-.47,1.2,1.46,1.72,1.93.54Z"/><path d="M45.66,111.06c.9,4.08,1.88,8.29,4.36,11.74a1,1,0,0,0,1.37.36,1,1,0,0,0,.36-1.37c-2.39-3.32-3.3-7.34-4.16-11.27-.28-1.25-2.21-.72-1.93.54Z"/><path d="M51.08,119.27a17.18,17.18,0,0,0,7.08,15.18c1.05.75,2.05-1,1-1.73a15.16,15.16,0,0,1-6.09-13.45c.11-1.29-1.89-1.28-2,0Z"/><path d="M56.48,126a17.21,17.21,0,0,0,7.24,15.11c1,.74,2.06-1,1-1.73A15.15,15.15,0,0,1,58.48,126c.1-1.29-1.9-1.28-2,0Z"/><path d="M62.23,132.71a17.17,17.17,0,0,0,7.23,15.11c1.06.74,2.06-1,1-1.73a15.17,15.17,0,0,1-6.24-13.38c.09-1.29-1.91-1.28-2,0Z"/><path d="M68,139.11a16.59,16.59,0,0,0,1.4,8.46,12.55,12.55,0,0,0,6.51,6.1,1,1,0,0,0,1.37-.36,1,1,0,0,0-.36-1.37,10.92,10.92,0,0,1-5.8-5.37A14.76,14.76,0,0,1,70,139.11c.09-1.28-1.91-1.27-2,0Z"/><path d="M43.18,78A4.36,4.36,0,0,0,38,80.19a8.4,8.4,0,0,0-.49,6.52c1.32,4,5.27,5.91,8,8.83.89.95,2.3-.47,1.42-1.41-2.14-2.29-5.2-3.84-6.85-6.57a6.78,6.78,0,0,1-.83-5c.36-1.54,1.57-3.27,3.36-2.62,1.21.44,1.73-1.49.53-1.93Z"/><path d="M73.41,142.75c-.5,4.13-.38,9.84,3.94,12,2.06,1,4,.73,6.06-.11,3.68-1.49,7.83-4.15,12-3.39,3.88.72,6.22,4.64,6.46,8.35.08,1.27,2.08,1.28,2,0a11.8,11.8,0,0,0-3.89-8.27c-2.72-2.3-6.2-2.59-9.55-1.65a45.91,45.91,0,0,0-5.61,2.25c-1.59.69-3.57,1.86-5.36,1.45a4.7,4.7,0,0,1-2.75-1.72c-1.87-2.43-1.61-6.06-1.26-8.9.15-1.28-1.85-1.27-2,0Z"/><path class="cls-8" d="M53.89,29a25.29,25.29,0,0,1-3.39.23C37.8,29.2,26.88,20,22.09,6.87c-7,6.83-11.41,17.22-11.41,28.86s4.45,22,11.41,28.87C26.88,51.45,37.8,42.26,50.5,42.26a25.28,25.28,0,0,1,3.39.24c1.12-.15,2,.6,3.17.6,2.73,0,5,2.45,7.55,3.25a82,82,0,0,0,1.28-10.62,82,82,0,0,0-1.28-10.61c-2.52.8-4.36,3.12-7.09,3.12C56.36,28.24,55,29.12,53.89,29Z"/><path class="cls-7" d="M53.89,28a26.44,26.44,0,0,1-19-5A35.28,35.28,0,0,1,23.06,6.6a1,1,0,0,0-1.67-.44C9,18.41,6.5,38.49,13.59,54.07a38.11,38.11,0,0,0,7.8,11.24,1,1,0,0,0,1.67-.44c4.61-12.49,16.09-22.94,30.11-21.46a11.81,11.81,0,0,1,1.69.19c.46.13.9.32,1.38.41a12.3,12.3,0,0,1,2.81.57c1.84.79,3.39,2.07,5.3,2.73a1,1,0,0,0,1.23-.7,64.28,64.28,0,0,0,1.31-10.88,64.4,64.4,0,0,0-1.31-10.88,1,1,0,0,0-1.23-.69c-1.75.6-3.14,1.77-4.79,2.56a9,9,0,0,1-2.66.58,15,15,0,0,1-3,.67c-1.29-.06-1.29,1.94,0,2a9.09,9.09,0,0,0,2.81-.58,27.61,27.61,0,0,0,3-.56c1.85-.7,3.32-2.1,5.19-2.74l-1.23-.7a61,61,0,0,1,1.24,10.34,61.07,61.07,0,0,1-1.24,10.35l1.23-.7c-1.84-.64-3.37-1.92-5.16-2.68a7.87,7.87,0,0,0-2.29-.58c-1-.1-1.85-.5-2.82-.61a30.28,30.28,0,0,0-11.1.67A31.46,31.46,0,0,0,27,53.55a40.78,40.78,0,0,0-5.88,10.78l1.67-.44C11.08,52.27,8.58,33,15.4,18.23A36.44,36.44,0,0,1,22.8,7.58l-1.67-.45A37.71,37.71,0,0,0,33.64,24.46,28.06,28.06,0,0,0,53.89,30C55.15,29.82,55.16,27.82,53.89,28Z"/><path class="cls-7" d="M50.5,43.26a26.63,26.63,0,0,1,13.61,4,1,1,0,0,0,1.47-.6,46.53,46.53,0,0,0,0-21.76,1,1,0,0,0-1.47-.59,25.86,25.86,0,0,1-22.32,2.39A30.83,30.83,0,0,1,26.55,13.77,40.25,40.25,0,0,1,21.74,2.29a1,1,0,0,0-1.47-.6C1.87,13.15-1.88,40.11,8.85,58A35.15,35.15,0,0,0,20.27,69.78a1,1,0,0,0,1.47-.6c3.38-13.44,14-25.82,28.76-25.92a1,1,0,0,0,0-2C38.87,41.34,29,48.83,23.58,58.83a43.15,43.15,0,0,0-3.77,9.82l1.47-.6C3.85,57.19.44,31.57,10.49,14.63A32.88,32.88,0,0,1,21.28,3.42l-1.47-.6C23.4,17.06,34.91,30.2,50.5,30.2A28.23,28.23,0,0,0,65.12,26l-1.47-.59a44.12,44.12,0,0,1,0,20.69l1.47-.6A28.71,28.71,0,0,0,50.5,41.26,1,1,0,0,0,50.5,43.26Z"/><path class="cls-6" d="M64.61,25.12a18.9,18.9,0,0,0-3.73,2,68.4,68.4,0,0,1,.95,8.6,69.16,69.16,0,0,1-1,8.67,20.58,20.58,0,0,0,3.74,2,82,82,0,0,0,1.28-10.62A82,82,0,0,0,64.61,25.12Z"/><path class="cls-7" d="M64.35,24.16a21.59,21.59,0,0,0-4,2.11,1,1,0,0,0-.46,1.13,52.24,52.24,0,0,1,.91,8.45,56.38,56.38,0,0,1-.92,8.29,1.05,1.05,0,0,0,.46,1.13,22.64,22.64,0,0,0,4,2,1,1,0,0,0,1.23-.7,64.15,64.15,0,0,0,1.31-10.88,64.4,64.4,0,0,0-1.31-10.88c-.23-1.26-2.16-.72-1.93.54a61.08,61.08,0,0,1,1.24,10.34,61.2,61.2,0,0,1-1.24,10.35l1.23-.7a20.51,20.51,0,0,1-3.5-1.84l.46,1.13a59.53,59.53,0,0,0,1-8.82,56.58,56.58,0,0,0-1-9L61.39,28a18.22,18.22,0,0,1,3.49-1.91C66.09,25.67,65.57,23.73,64.35,24.16Z"/><path d="M90.44,71.75c2.91-5.23,3.13-11.55,3.08-17.39-.06-6.51-.69-13.48,3.39-19,3.55-4.81,8.76-8.15,13.06-12.23a37.27,37.27,0,0,0,5.66-6.74A22.74,22.74,0,0,1,118,12.64c1.62-1.64.83,2,.75,2.73-.75,7.1,2.26,13.92,2.39,21a1,1,0,0,0,2,0c-.13-6.91-3-13.59-2.43-20.53.16-1.85,1.14-6.1-2.21-5.68a4.33,4.33,0,0,0-2.75,2.19c-1,1.5-1.85,3.07-2.9,4.54-3.83,5.34-9.48,9-14.15,13.47a24,24,0,0,0-5.48,7.3,25.52,25.52,0,0,0-1.78,9.79c-.19,7.66,1.13,16.32-2.76,23.33-.63,1.12,1.1,2.13,1.72,1Z"/><path d="M94.52,72.74c9.39-5.71,12-17.48,17.48-26.23a19.35,19.35,0,0,1,5.52-6,28.45,28.45,0,0,1,7.38-3.3c5.33-1.67,10.89-2.55,16.13-4.5a40.78,40.78,0,0,0,7.34-3.64,20.37,20.37,0,0,1,3.26-1.95c.54-.2,1.46-.48,1.29.49a5.32,5.32,0,0,1-1.08,1.75c-2.74,3.88-4,8.52-5.25,13-1.27,4.69-2.52,9.52-5.45,13.5s-7.3,6.84-11.83,8.81c-5.64,2.46-11.73,3.52-17.73,4.68a79.48,79.48,0,0,0-9,2.13c-2,.64-4.1,1.63-4.24,4-.07,1.29,1.93,1.28,2,0,.07-1.11,1.35-1.57,2.24-1.88a39.19,39.19,0,0,1,4.24-1.18c2.76-.67,5.56-1.17,8.35-1.71a68.77,68.77,0,0,0,15.91-4.62,30,30,0,0,0,11.7-9c3-4,4.38-9,5.67-13.76.64-2.38,1.27-4.76,2.13-7.06a37.5,37.5,0,0,1,3.69-6.83c1-1.64,1-4.19-1.4-4.47s-4.76,2-6.67,3.11c-5.09,3-10.73,4.32-16.41,5.74-5.29,1.32-10.92,2.78-15.14,6.43-4.82,4.17-7.18,10.57-9.91,16.15S98.84,67.77,93.51,71a1,1,0,0,0,1,1.72Z"/><path d="M98.81,76.36a31.7,31.7,0,0,1,6.64,5.45,18.23,18.23,0,0,1,2,3.15c1.64,3,2.37,6.45,3.93,9.52a22.76,22.76,0,0,0,7,7.7c3.42,2.55,7.17,4.62,10.57,7.21,1,.78,2-1,1-1.73-5.81-4.42-13.51-7.51-16.91-14.37-2.06-4.17-2.93-9-5.94-12.68a32.4,32.4,0,0,0-7.22-6c-1.07-.72-2.08,1-1,1.72Z"/></g></svg>